<svg width="24" height="24" viewBox="0 0 24 24" fill="none" xmlns="http://www.w3.org/2000/svg"><path d="M5.30775 20.5C4.80258 20.5 4.375 20.325 4.025 19.975C3.675 19.625 3.5 19.1974 3.5 18.6923V5.30775C3.5 4.80258 3.675 4.375 4.025 4.025C4.375 3.675 4.80258 3.5 5.30775 3.5H18.6923C19.1974 3.5 19.625 3.675 19.975 4.025C20.325 4.375 20.5 4.80258 20.5 5.30775V18.6923C20.5 19.1974 20.325 19.625 19.975 19.975C19.625 20.325 19.1974 20.5 18.6923 20.5H5.30775ZM5.30775 19H18.6923C18.7692 19 18.8398 18.9679 18.9038 18.9038C18.9679 18.8398 19 18.7692 19 18.6923V5.30775C19 5.23075 18.9679 5.16025 18.9038 5.09625C18.8398 5.03208 18.7692 5 18.6923 5H5.30775C5.23075 5 5.16025 5.03208 5.09625 5.09625C5.03208 5.16025 5 5.23075 5 5.30775V18.6923C5 18.7692 5.03208 18.8398 5.09625 18.9038C5.16025 18.9679 5.23075 19 5.30775 19ZM6.75 17H17.3268L14 12.3655L11.2308 16.0192L9 13.4615L6.75 17Z" fill="currentColor"></path><path fill-rule="evenodd" clip-rule="evenodd" d="M6 12V6.5H9.1925C9.5925 6.5 9.9425 6.65 10.2425 6.95C10.5425 7.25 10.6925 7.6 10.6925 8V8.6925C10.6925 9.03733 10.605 9.32675 10.43 9.56075C10.255 9.79458 10.0168 9.97817 9.7155 10.1115L10.6155 12H9.404L8.504 10.1925H7.1925V12H6ZM9.1925 9H7.1925V7.6925H9.1925C9.26933 7.6925 9.33983 7.7245 9.404 7.7885C9.468 7.85267 9.5 7.92317 9.5 8V8.6925C9.5 8.76933 9.468 8.83983 9.404 8.904C9.33983 8.968 9.26933 9 9.1925 9Z" fill="currentColor"></path><path d="M12.5 7H17.5V8.25H12.5V7Z" fill="currentColor"></path><path d="M12.5 9.25H17.5V10.5H12.5V9.25Z" fill="currentColor"></path></svg>
