<svg width="24" height="24" viewBox="0 0 24 24" fill="none" xmlns="http://www.w3.org/2000/svg"><path fill-rule="evenodd" clip-rule="evenodd" d="M5.30775 20.5C4.80258 20.5 4.375 20.325 4.025 19.975C3.675 19.625 3.5 19.1974 3.5 18.6923V5.30775C3.5 4.80258 3.675 4.375 4.025 4.025C4.375 3.675 4.80258 3.5 5.30775 3.5H18.6923C19.1974 3.5 19.625 3.675 19.975 4.025C20.325 4.375 20.5 4.80258 20.5 5.30775V18.6923C20.5 19.1974 20.325 19.625 19.975 19.975C19.625 20.325 19.1974 20.5 18.6923 20.5H5.30775ZM18.6923 19H5.30775C5.23075 19 5.16025 18.9679 5.09625 18.9038C5.03208 18.8398 5 18.7692 5 18.6923V5.30775C5 5.23075 5.03208 5.16025 5.09625 5.09625C5.16025 5.03208 5.23075 5 5.30775 5H18.6923C18.7692 5 18.8398 5.03208 18.9038 5.09625C18.9679 5.16025 19 5.23075 19 5.30775V18.6923C19 18.7692 18.9679 18.8398 18.9038 18.9038C18.8398 18.9679 18.7692 19 18.6923 19Z" fill="currentColor"></path><rect x="9" y="10" width="5.5" height="1.5" fill="currentColor"></rect><rect x="9" y="15" width="5.5" height="1.5" fill="currentColor"></rect><rect x="11" y="8" width="1.5" height="5.5" fill="currentColor"></rect></svg>
